
<svg width="1034" height="148" viewBox="0 0 1034 148" fill="none" xmlns="http://www.w3.org/2000/svg">
<g clip-path="url(#clip0_2_3782)">
<path d="M4.992 14.304H36.544V19.424H11.072V33.952H34.816V39.072H11.072V54.88H36.736V60H4.992V14.304ZM41.941 26.912H47.061V31.776H47.189C49.6637 28.0213 53.2263 26.144 57.877 26.144C59.925 26.144 61.781 26.5707 63.445 27.424C65.109 28.2773 66.2823 29.728 66.965 31.776C68.0743 29.984 69.525 28.5973 71.317 27.616C73.1517 26.6347 75.157 26.144 77.333 26.144C78.997 26.144 80.4903 26.336 81.813 26.72C83.1783 27.0613 84.3303 27.616 85.269 28.384C86.2503 29.152 86.997 30.1547 87.509 31.392C88.0637 32.5867 88.341 34.0373 88.341 35.744V60H82.901V38.304C82.901 37.28 82.8157 36.32 82.645 35.424C82.4743 34.528 82.1543 33.76 81.685 33.12C81.2157 32.4373 80.5543 31.904 79.701 31.52C78.8903 31.136 77.8237 30.944 76.501 30.944C73.813 30.944 71.701 31.712 70.165 33.248C68.629 34.784 67.861 36.832 67.861 39.392V60H62.421V38.304C62.421 37.2373 62.3143 36.256 62.101 35.36C61.9303 34.464 61.6103 33.696 61.141 33.056C60.6717 32.3733 60.0317 31.8613 59.221 31.52C58.453 31.136 57.4503 30.944 56.213 30.944C54.6343 30.944 53.269 31.264 52.117 31.904C51.0077 32.544 50.0903 33.312 49.365 34.208C48.6823 35.104 48.1703 36.0427 47.829 37.024C47.5303 37.9627 47.381 38.752 47.381 39.392V60H41.941V26.912ZM124.536 59.872C123.597 60.4267 122.296 60.704 120.632 60.704C119.224 60.704 118.093 60.32 117.24 59.552C116.429 58.7413 116.024 57.44 116.024 55.648C114.53 57.44 112.781 58.7413 110.776 59.552C108.813 60.32 106.68 60.704 104.376 60.704C102.882 60.704 101.453 60.5333 100.088 60.192C98.7648 59.8507 97.6128 59.3173 96.6315 58.592C95.6502 57.8667 94.8608 56.928 94.2635 55.776C93.7088 54.5813 93.4315 53.152 93.4315 51.488C93.4315 49.6107 93.7515 48.0747 94.3915 46.88C95.0315 45.6853 95.8635 44.7253 96.8875 44C97.9542 43.232 99.1488 42.656 100.472 42.272C101.837 41.888 103.224 41.568 104.632 41.312C106.125 41.0133 107.533 40.8 108.856 40.672C110.221 40.5013 111.416 40.288 112.44 40.032C113.464 39.7333 114.274 39.328 114.872 38.816C115.469 38.2613 115.768 37.472 115.768 36.448C115.768 35.2533 115.533 34.2933 115.064 33.568C114.637 32.8427 114.061 32.288 113.336 31.904C112.653 31.52 111.864 31.264 110.968 31.136C110.114 31.008 109.261 30.944 108.408 30.944C106.104 30.944 104.184 31.392 102.648 32.288C101.112 33.1413 100.28 34.784 100.152 37.216H94.7115C94.7968 35.168 95.2235 33.44 95.9915 32.032C96.7595 30.624 97.7835 29.4933 99.0635 28.64C100.344 27.744 101.794 27.104 103.416 26.72C105.08 26.336 106.85 26.144 108.728 26.144C110.221 26.144 111.693 26.2507 113.144 26.464C114.637 26.6773 115.981 27.1253 117.176 27.808C118.37 28.448 119.33 29.3653 120.056 30.56C120.781 31.7547 121.144 33.312 121.144 35.232V52.256C121.144 53.536 121.208 54.4747 121.336 55.072C121.506 55.6693 122.018 55.968 122.872 55.968C123.341 55.968 123.896 55.8613 124.536 55.648V59.872ZM115.704 42.912C115.021 43.424 114.125 43.808 113.016 44.064C111.906 44.2773 110.733 44.4693 109.496 44.64C108.301 44.768 107.085 44.9387 105.848 45.152C104.61 45.3227 103.501 45.6213 102.52 46.048C101.538 46.4747 100.728 47.0933 100.088 47.904C99.4902 48.672 99.1915 49.7387 99.1915 51.104C99.1915 52 99.3622 52.768 99.7035 53.408C100.088 54.0053 100.557 54.496 101.112 54.88C101.709 55.264 102.392 55.5413 103.16 55.712C103.928 55.8827 104.738 55.968 105.592 55.968C107.384 55.968 108.92 55.7333 110.2 55.264C111.48 54.752 112.525 54.1333 113.336 53.408C114.146 52.64 114.744 51.8293 115.128 50.976C115.512 50.08 115.704 49.248 115.704 48.48V42.912ZM134.079 20.96H128.639V14.304H134.079V20.96ZM128.639 26.912H134.079V60H128.639V26.912ZM141.546 14.304H146.986V60H141.546V14.304ZM181.93 19.424H166.698V14.304H203.242V19.424H188.01V60H181.93V19.424ZM221.987 40.288C221.902 39.008 221.603 37.792 221.091 36.64C220.622 35.488 219.96 34.5067 219.107 33.696C218.296 32.8427 217.315 32.1813 216.163 31.712C215.054 31.2 213.816 30.944 212.451 30.944C211.043 30.944 209.763 31.2 208.611 31.712C207.502 32.1813 206.542 32.8427 205.731 33.696C204.92 34.5493 204.28 35.552 203.811 36.704C203.342 37.8133 203.064 39.008 202.979 40.288H221.987ZM227.235 49.504C226.51 53.216 224.91 56.0107 222.435 57.888C219.96 59.7653 216.846 60.704 213.091 60.704C210.446 60.704 208.142 60.2773 206.179 59.424C204.259 58.5707 202.638 57.376 201.315 55.84C199.992 54.304 198.99 52.4693 198.307 50.336C197.667 48.2027 197.304 45.8773 197.219 43.36C197.219 40.8427 197.603 38.5387 198.371 36.448C199.139 34.3573 200.206 32.544 201.571 31.008C202.979 29.472 204.622 28.2773 206.499 27.424C208.419 26.5707 210.51 26.144 212.771 26.144C215.715 26.144 218.147 26.7627 220.067 28C222.03 29.1947 223.587 30.7307 224.739 32.608C225.934 34.4853 226.744 36.5333 227.171 38.752C227.64 40.9707 227.832 43.0827 227.747 45.088H202.979C202.936 46.5387 203.107 47.9253 203.491 49.248C203.875 50.528 204.494 51.68 205.347 52.704C206.2 53.6853 207.288 54.4747 208.611 55.072C209.934 55.6693 211.491 55.968 213.283 55.968C215.587 55.968 217.464 55.4347 218.915 54.368C220.408 53.3013 221.39 51.68 221.859 49.504H227.235ZM232.106 26.912H237.226V31.776H237.354C239.829 28.0213 243.391 26.144 248.042 26.144C250.09 26.144 251.946 26.5707 253.61 27.424C255.274 28.2773 256.447 29.728 257.13 31.776C258.239 29.984 259.69 28.5973 261.482 27.616C263.317 26.6347 265.322 26.144 267.498 26.144C269.162 26.144 270.655 26.336 271.978 26.72C273.343 27.0613 274.495 27.616 275.434 28.384C276.415 29.152 277.162 30.1547 277.674 31.392C278.229 32.5867 278.506 34.0373 278.506 35.744V60H273.066V38.304C273.066 37.28 272.981 36.32 272.81 35.424C272.639 34.528 272.319 33.76 271.85 33.12C271.381 32.4373 270.719 31.904 269.866 31.52C269.055 31.136 267.989 30.944 266.666 30.944C263.978 30.944 261.866 31.712 260.33 33.248C258.794 34.784 258.026 36.832 258.026 39.392V60H252.586V38.304C252.586 37.2373 252.479 36.256 252.266 35.36C252.095 34.464 251.775 33.696 251.306 33.056C250.837 32.3733 250.197 31.8613 249.386 31.52C248.618 31.136 247.615 30.944 246.378 30.944C244.799 30.944 243.434 31.264 242.282 31.904C241.173 32.544 240.255 33.312 239.53 34.208C238.847 35.104 238.335 36.0427 237.994 37.024C237.695 37.9627 237.546 38.752 237.546 39.392V60H232.106V26.912ZM285.581 26.912H291.021V31.392H291.149C292.045 29.5573 293.453 28.2347 295.373 27.424C297.293 26.5707 299.405 26.144 301.709 26.144C304.269 26.144 306.487 26.6133 308.365 27.552C310.285 28.4907 311.863 29.7707 313.101 31.392C314.381 32.9707 315.341 34.8053 315.981 36.896C316.621 38.9867 316.941 41.2053 316.941 43.552C316.941 45.8987 316.621 48.1173 315.981 50.208C315.383 52.2987 314.445 54.1333 313.165 55.712C311.927 57.248 310.349 58.464 308.429 59.36C306.551 60.256 304.354 60.704 301.837 60.704C301.026 60.704 300.109 60.6187 299.085 60.448C298.103 60.2773 297.122 60 296.141 59.616C295.159 59.232 294.221 58.72 293.325 58.08C292.471 57.3973 291.746 56.5653 291.149 55.584H291.021V72.608H285.581V26.912ZM311.181 43.168C311.181 41.632 310.967 40.1387 310.541 38.688C310.157 37.1947 309.538 35.872 308.685 34.72C307.874 33.568 306.807 32.6507 305.485 31.968C304.205 31.2853 302.69 30.944 300.941 30.944C299.106 30.944 297.549 31.3067 296.269 32.032C294.989 32.7573 293.943 33.7173 293.133 34.912C292.322 36.064 291.725 37.3867 291.341 38.88C290.999 40.3733 290.829 41.888 290.829 43.424C290.829 45.0453 291.021 46.624 291.405 48.16C291.789 49.6533 292.386 50.976 293.197 52.128C294.05 53.28 295.138 54.2187 296.461 54.944C297.783 55.6267 299.383 55.968 301.261 55.968C303.138 55.968 304.695 55.6053 305.933 54.88C307.213 54.1547 308.237 53.1947 309.005 52C309.773 50.8053 310.327 49.44 310.669 47.904C311.01 46.368 311.181 44.7893 311.181 43.168ZM322.366 14.304H327.806V60H322.366V14.304ZM364.266 59.872C363.327 60.4267 362.026 60.704 360.362 60.704C358.954 60.704 357.823 60.32 356.97 59.552C356.159 58.7413 355.754 57.44 355.754 55.648C354.26 57.44 352.511 58.7413 350.506 59.552C348.543 60.32 346.41 60.704 344.106 60.704C342.612 60.704 341.183 60.5333 339.818 60.192C338.495 59.8507 337.343 59.3173 336.362 58.592C335.38 57.8667 334.591 56.928 333.994 55.776C333.439 54.5813 333.162 53.152 333.162 51.488C333.162 49.6107 333.482 48.0747 334.122 46.88C334.762 45.6853 335.594 44.7253 336.618 44C337.684 43.232 338.879 42.656 340.202 42.272C341.567 41.888 342.954 41.568 344.362 41.312C345.855 41.0133 347.263 40.8 348.586 40.672C349.951 40.5013 351.146 40.288 352.17 40.032C353.194 39.7333 354.004 39.328 354.602 38.816C355.199 38.2613 355.498 37.472 355.498 36.448C355.498 35.2533 355.263 34.2933 354.794 33.568C354.367 32.8427 353.791 32.288 353.066 31.904C352.383 31.52 351.594 31.264 350.698 31.136C349.844 31.008 348.991 30.944 348.138 30.944C345.834 30.944 343.914 31.392 342.378 32.288C340.842 33.1413 340.01 34.784 339.882 37.216H334.442C334.527 35.168 334.954 33.44 335.722 32.032C336.49 30.624 337.514 29.4933 338.794 28.64C340.074 27.744 341.524 27.104 343.146 26.72C344.81 26.336 346.58 26.144 348.458 26.144C349.951 26.144 351.423 26.2507 352.874 26.464C354.367 26.6773 355.711 27.1253 356.906 27.808C358.1 28.448 359.06 29.3653 359.786 30.56C360.511 31.7547 360.874 33.312 360.874 35.232V52.256C360.874 53.536 360.938 54.4747 361.066 55.072C361.236 55.6693 361.748 55.968 362.602 55.968C363.071 55.968 363.626 55.8613 364.266 55.648V59.872ZM355.434 42.912C354.751 43.424 353.855 43.808 352.746 44.064C351.636 44.2773 350.463 44.4693 349.226 44.64C348.031 44.768 346.815 44.9387 345.578 45.152C344.34 45.3227 343.231 45.6213 342.25 46.048C341.268 46.4747 340.458 47.0933 339.818 47.904C339.22 48.672 338.922 49.7387 338.922 51.104C338.922 52 339.092 52.768 339.434 53.408C339.818 54.0053 340.287 54.496 340.842 54.88C341.439 55.264 342.122 55.5413 342.89 55.712C343.658 55.8827 344.468 55.968 345.322 55.968C347.114 55.968 348.65 55.7333 349.93 55.264C351.21 54.752 352.255 54.1333 353.066 53.408C353.876 52.64 354.474 51.8293 354.858 50.976C355.242 50.08 355.434 49.248 355.434 48.48V42.912ZM375.601 26.912H382.193V31.712H375.601V52.256C375.601 52.896 375.643 53.408 375.729 53.792C375.857 54.176 376.07 54.4747 376.369 54.688C376.667 54.9013 377.073 55.0507 377.585 55.136C378.139 55.1787 378.843 55.2 379.697 55.2H382.193V60H378.033C376.625 60 375.409 59.9147 374.385 59.744C373.403 59.5307 372.593 59.168 371.953 58.656C371.355 58.144 370.907 57.4187 370.609 56.48C370.31 55.5413 370.161 54.304 370.161 52.768V31.712H364.529V26.912H370.161V16.992H375.601V26.912ZM409.932 40.288C409.847 39.008 409.548 37.792 409.036 36.64C408.567 35.488 407.905 34.5067 407.052 33.696C406.241 32.8427 405.26 32.1813 404.108 31.712C402.999 31.2 401.761 30.944 400.396 30.944C398.988 30.944 397.708 31.2 396.556 31.712C395.447 32.1813 394.487 32.8427 393.676 33.696C392.865 34.5493 392.225 35.552 391.756 36.704C391.287 37.8133 391.009 39.008 390.924 40.288H409.932ZM415.18 49.504C414.455 53.216 412.855 56.0107 410.38 57.888C407.905 59.7653 404.791 60.704 401.036 60.704C398.391 60.704 396.087 60.2773 394.124 59.424C392.204 58.5707 390.583 57.376 389.26 55.84C387.937 54.304 386.935 52.4693 386.252 50.336C385.612 48.2027 385.249 45.8773 385.164 43.36C385.164 40.8427 385.548 38.5387 386.316 36.448C387.084 34.3573 388.151 32.544 389.516 31.008C390.924 29.472 392.567 28.2773 394.444 27.424C396.364 26.5707 398.455 26.144 400.716 26.144C403.66 26.144 406.092 26.7627 408.012 28C409.975 29.1947 411.532 30.7307 412.684 32.608C413.879 34.4853 414.689 36.5333 415.116 38.752C415.585 40.9707 415.777 43.0827 415.692 45.088H390.924C390.881 46.5387 391.052 47.9253 391.436 49.248C391.82 50.528 392.439 51.68 393.292 52.704C394.145 53.6853 395.233 54.4747 396.556 55.072C397.879 55.6693 399.436 55.968 401.228 55.968C403.532 55.968 405.409 55.4347 406.86 54.368C408.353 53.3013 409.335 51.68 409.804 49.504H415.18ZM423.379 49.568C423.422 50.7627 423.699 51.7867 424.211 52.64C424.723 53.4507 425.384 54.112 426.195 54.624C427.048 55.0933 427.987 55.4347 429.011 55.648C430.078 55.8613 431.166 55.968 432.275 55.968C433.128 55.968 434.024 55.904 434.963 55.776C435.902 55.648 436.755 55.4133 437.523 55.072C438.334 54.7307 438.995 54.24 439.507 53.6C440.019 52.9173 440.275 52.064 440.275 51.04C440.275 49.632 439.742 48.5653 438.675 47.84C437.608 47.1147 436.264 46.5387 434.643 46.112C433.064 45.6427 431.336 45.2373 429.459 44.896C427.582 44.512 425.832 44 424.211 43.36C422.632 42.6773 421.31 41.7387 420.243 40.544C419.176 39.3493 418.643 37.6853 418.643 35.552C418.643 33.888 419.006 32.4587 419.731 31.264C420.499 30.0693 421.459 29.1093 422.611 28.384C423.806 27.616 425.128 27.0613 426.579 26.72C428.072 26.336 429.544 26.144 430.995 26.144C432.872 26.144 434.6 26.3147 436.179 26.656C437.758 26.9547 439.144 27.5093 440.339 28.32C441.576 29.088 442.558 30.1547 443.283 31.52C444.008 32.8427 444.435 34.5067 444.563 36.512H439.123C439.038 35.4453 438.76 34.5707 438.291 33.888C437.822 33.1627 437.224 32.5867 436.499 32.16C435.774 31.7333 434.963 31.4347 434.067 31.264C433.214 31.0507 432.339 30.944 431.443 30.944C430.632 30.944 429.8 31.008 428.947 31.136C428.136 31.264 427.39 31.4987 426.707 31.84C426.024 32.1387 425.47 32.5653 425.043 33.12C424.616 33.632 424.403 34.3147 424.403 35.168C424.403 36.1067 424.723 36.896 425.363 37.536C426.046 38.1333 426.899 38.6453 427.923 39.072C428.947 39.456 430.099 39.7973 431.379 40.096C432.659 40.352 433.939 40.6293 435.219 40.928C436.584 41.2267 437.907 41.5893 439.187 42.016C440.51 42.4427 441.662 43.0187 442.643 43.744C443.667 44.4267 444.478 45.3013 445.075 46.368C445.715 47.4347 446.035 48.7573 446.035 50.336C446.035 52.3413 445.608 54.0053 444.755 55.328C443.944 56.6507 442.856 57.7173 441.491 58.528C440.168 59.3387 438.654 59.8933 436.947 60.192C435.283 60.5333 433.619 60.704 431.955 60.704C430.12 60.704 428.371 60.512 426.707 60.128C425.043 59.744 423.571 59.1253 422.291 58.272C421.011 57.376 419.987 56.224 419.219 54.816C418.451 53.3653 418.024 51.616 417.939 49.568H423.379ZM4.992 86.304H36.544V91.424H11.072V105.952H34.816V111.072H11.072V126.88H36.736V132H4.992V86.304ZM41.941 98.912H47.061V103.776H47.189C49.6637 100.021 53.2263 98.144 57.877 98.144C59.925 98.144 61.781 98.5707 63.445 99.424C65.109 100.277 66.2823 101.728 66.965 103.776C68.0743 101.984 69.525 100.597 71.317 99.616C73.1517 98.6347 75.157 98.144 77.333 98.144C78.997 98.144 80.4903 98.336 81.813 98.72C83.1783 99.0613 84.3303 99.616 85.269 100.384C86.2503 101.152 86.997 102.155 87.509 103.392C88.0637 104.587 88.341 106.037 88.341 107.744V132H82.901V110.304C82.901 109.28 82.8157 108.32 82.645 107.424C82.4743 106.528 82.1543 105.76 81.685 105.12C81.2157 104.437 80.5543 103.904 79.701 103.52C78.8903 103.136 77.8237 102.944 76.501 102.944C73.813 102.944 71.701 103.712 70.165 105.248C68.629 106.784 67.861 108.832 67.861 111.392V132H62.421V110.304C62.421 109.237 62.3143 108.256 62.101 107.36C61.9303 106.464 61.6103 105.696 61.141 105.056C60.6717 104.373 60.0317 103.861 59.221 103.52C58.453 103.136 57.4503 102.944 56.213 102.944C54.6343 102.944 53.269 103.264 52.117 103.904C51.0077 104.544 50.0903 105.312 49.365 106.208C48.6823 107.104 48.1703 108.043 47.829 109.024C47.5303 109.963 47.381 110.752 47.381 111.392V132H41.941V98.912ZM124.536 131.872C123.597 132.427 122.296 132.704 120.632 132.704C119.224 132.704 118.093 132.32 117.24 131.552C116.429 130.741 116.024 129.44 116.024 127.648C114.53 129.44 112.781 130.741 110.776 131.552C108.813 132.32 106.68 132.704 104.376 132.704C102.882 132.704 101.453 132.533 100.088 132.192C98.7648 131.851 97.6128 131.317 96.6315 130.592C95.6502 129.867 94.8608 128.928 94.2635 127.776C93.7088 126.581 93.4315 125.152 93.4315 123.488C93.4315 121.611 93.7515 120.075 94.3915 118.88C95.0315 117.685 95.8635 116.725 96.8875 116C97.9542 115.232 99.1488 114.656 100.472 114.272C101.837 113.888 103.224 113.568 104.632 113.312C106.125 113.013 107.533 112.8 108.856 112.672C110.221 112.501 111.416 112.288 112.44 112.032C113.464 111.733 114.274 111.328 114.872 110.816C115.469 110.261 115.768 109.472 115.768 108.448C115.768 107.253 115.533 106.293 115.064 105.568C114.637 104.843 114.061 104.288 113.336 103.904C112.653 103.52 111.864 103.264 110.968 103.136C110.114 103.008 109.261 102.944 108.408 102.944C106.104 102.944 104.184 103.392 102.648 104.288C101.112 105.141 100.28 106.784 100.152 109.216H94.7115C94.7968 107.168 95.2235 105.44 95.9915 104.032C96.7595 102.624 97.7835 101.493 99.0635 100.64C100.344 99.744 101.794 99.104 103.416 98.72C105.08 98.336 106.85 98.144 108.728 98.144C110.221 98.144 111.693 98.2507 113.144 98.464C114.637 98.6773 115.981 99.1253 117.176 99.808C118.37 100.448 119.33 101.365 120.056 102.56C120.781 103.755 121.144 105.312 121.144 107.232V124.256C121.144 125.536 121.208 126.475 121.336 127.072C121.506 127.669 122.018 127.968 122.872 127.968C123.341 127.968 123.896 127.861 124.536 127.648V131.872ZM115.704 114.912C115.021 115.424 114.125 115.808 113.016 116.064C111.906 116.277 110.733 116.469 109.496 116.64C108.301 116.768 107.085 116.939 105.848 117.152C104.61 117.323 103.501 117.621 102.52 118.048C101.538 118.475 100.728 119.093 100.088 119.904C99.4902 120.672 99.1915 121.739 99.1915 123.104C99.1915 124 99.3622 124.768 99.7035 125.408C100.088 126.005 100.557 126.496 101.112 126.88C101.709 127.264 102.392 127.541 103.16 127.712C103.928 127.883 104.738 127.968 105.592 127.968C107.384 127.968 108.92 127.733 110.2 127.264C111.48 126.752 112.525 126.133 113.336 125.408C114.146 124.64 114.744 123.829 115.128 122.976C115.512 122.08 115.704 121.248 115.704 120.48V114.912ZM134.079 92.96H128.639V86.304H134.079V92.96ZM128.639 98.912H134.079V132H128.639V98.912ZM141.546 86.304H146.986V132H141.546V86.304ZM197.994 99.68C197.653 96.3947 196.458 94.0267 194.41 92.576C192.405 91.0827 189.823 90.336 186.666 90.336C185.386 90.336 184.127 90.464 182.89 90.72C181.653 90.976 180.543 91.4027 179.562 92C178.623 92.5973 177.855 93.408 177.258 94.432C176.703 95.4133 176.426 96.6507 176.426 98.144C176.426 99.552 176.831 100.704 177.642 101.6C178.495 102.453 179.605 103.157 180.97 103.712C182.378 104.267 183.957 104.736 185.706 105.12C187.455 105.461 189.226 105.845 191.018 106.272C192.853 106.699 194.645 107.211 196.394 107.808C198.143 108.363 199.701 109.131 201.066 110.112C202.474 111.093 203.583 112.331 204.394 113.824C205.247 115.317 205.674 117.195 205.674 119.456C205.674 121.888 205.119 123.979 204.01 125.728C202.943 127.435 201.557 128.843 199.85 129.952C198.143 131.019 196.223 131.787 194.09 132.256C191.999 132.768 189.909 133.024 187.818 133.024C185.258 133.024 182.826 132.704 180.522 132.064C178.261 131.424 176.255 130.464 174.506 129.184C172.799 127.861 171.434 126.197 170.41 124.192C169.429 122.144 168.938 119.733 168.938 116.96H174.698C174.698 118.88 175.061 120.544 175.786 121.952C176.554 123.317 177.535 124.448 178.73 125.344C179.967 126.24 181.397 126.901 183.018 127.328C184.639 127.755 186.303 127.968 188.01 127.968C189.375 127.968 190.741 127.84 192.106 127.584C193.514 127.328 194.773 126.901 195.882 126.304C196.991 125.664 197.887 124.811 198.57 123.744C199.253 122.677 199.594 121.312 199.594 119.648C199.594 118.069 199.167 116.789 198.314 115.808C197.503 114.827 196.394 114.037 194.986 113.44C193.621 112.8 192.063 112.288 190.314 111.904C188.565 111.52 186.773 111.136 184.938 110.752C183.146 110.325 181.375 109.856 179.626 109.344C177.877 108.789 176.298 108.085 174.89 107.232C173.525 106.336 172.415 105.205 171.562 103.84C170.751 102.432 170.346 100.683 170.346 98.592C170.346 96.288 170.815 94.304 171.754 92.64C172.693 90.9333 173.93 89.5467 175.466 88.48C177.045 87.3707 178.815 86.56 180.778 86.048C182.783 85.4933 184.831 85.216 186.922 85.216C189.269 85.216 191.445 85.4933 193.45 86.048C195.455 86.6027 197.205 87.4773 198.698 88.672C200.234 89.8667 201.429 91.3813 202.282 93.216C203.178 95.008 203.669 97.1627 203.754 99.68H197.994ZM233.862 112.288C233.777 111.008 233.478 109.792 232.966 108.64C232.497 107.488 231.835 106.507 230.982 105.696C230.171 104.843 229.19 104.181 228.038 103.712C226.929 103.2 225.691 102.944 224.326 102.944C222.918 102.944 221.638 103.2 220.486 103.712C219.377 104.181 218.417 104.843 217.606 105.696C216.795 106.549 216.155 107.552 215.686 108.704C215.217 109.813 214.939 111.008 214.854 112.288H233.862ZM239.11 121.504C238.385 125.216 236.785 128.011 234.31 129.888C231.835 131.765 228.721 132.704 224.966 132.704C222.321 132.704 220.017 132.277 218.054 131.424C216.134 130.571 214.513 129.376 213.19 127.84C211.867 126.304 210.865 124.469 210.182 122.336C209.542 120.203 209.179 117.877 209.094 115.36C209.094 112.843 209.478 110.539 210.246 108.448C211.014 106.357 212.081 104.544 213.446 103.008C214.854 101.472 216.497 100.277 218.374 99.424C220.294 98.5707 222.385 98.144 224.646 98.144C227.59 98.144 230.022 98.7627 231.942 100C233.905 101.195 235.462 102.731 236.614 104.608C237.809 106.485 238.619 108.533 239.046 110.752C239.515 112.971 239.707 115.083 239.622 117.088H214.854C214.811 118.539 214.982 119.925 215.366 121.248C215.75 122.528 216.369 123.68 217.222 124.704C218.075 125.685 219.163 126.475 220.486 127.072C221.809 127.669 223.366 127.968 225.158 127.968C227.462 127.968 229.339 127.435 230.79 126.368C232.283 125.301 233.265 123.68 233.734 121.504H239.11ZM247.949 115.744C247.949 117.28 248.141 118.795 248.525 120.288C248.952 121.739 249.57 123.04 250.381 124.192C251.234 125.344 252.301 126.261 253.581 126.944C254.904 127.627 256.44 127.968 258.189 127.968C260.024 127.968 261.581 127.605 262.861 126.88C264.141 126.155 265.186 125.216 265.997 124.064C266.808 122.869 267.384 121.525 267.725 120.032C268.109 118.539 268.301 117.024 268.301 115.488C268.301 113.867 268.109 112.309 267.725 110.816C267.341 109.28 266.722 107.936 265.869 106.784C265.058 105.632 263.992 104.715 262.669 104.032C261.346 103.307 259.746 102.944 257.869 102.944C256.034 102.944 254.477 103.307 253.197 104.032C251.917 104.757 250.893 105.717 250.125 106.912C249.357 108.107 248.802 109.472 248.461 111.008C248.12 112.544 247.949 114.123 247.949 115.744ZM273.549 144.608H268.109V127.52H267.981C267.085 129.355 265.677 130.677 263.757 131.488C261.837 132.299 259.725 132.704 257.421 132.704C254.861 132.704 252.621 132.235 250.701 131.296C248.824 130.357 247.245 129.099 245.965 127.52C244.728 125.941 243.789 124.107 243.149 122.016C242.509 119.925 242.189 117.707 242.189 115.36C242.189 113.013 242.488 110.795 243.085 108.704C243.725 106.613 244.664 104.8 245.901 103.264C247.181 101.685 248.76 100.448 250.637 99.552C252.557 98.6133 254.776 98.144 257.293 98.144C258.146 98.144 259.064 98.2293 260.045 98.4C261.026 98.5707 262.008 98.8693 262.989 99.296C263.97 99.68 264.888 100.213 265.741 100.896C266.637 101.536 267.384 102.347 267.981 103.328H268.109V98.912H273.549V144.608ZM308.031 132H302.911V126.752H302.783C301.631 128.8 300.159 130.315 298.367 131.296C296.575 132.235 294.463 132.704 292.031 132.704C289.855 132.704 288.041 132.427 286.591 131.872C285.14 131.275 283.967 130.443 283.071 129.376C282.175 128.309 281.535 127.051 281.151 125.6C280.809 124.107 280.639 122.464 280.639 120.672V98.912H286.079V121.312C286.079 123.36 286.676 124.981 287.871 126.176C289.065 127.371 290.708 127.968 292.799 127.968C294.463 127.968 295.892 127.712 297.087 127.2C298.324 126.688 299.348 125.963 300.159 125.024C300.969 124.085 301.567 122.997 301.951 121.76C302.377 120.48 302.591 119.093 302.591 117.6V98.912H308.031V132ZM337.897 112.288C337.812 111.008 337.513 109.792 337.001 108.64C336.532 107.488 335.87 106.507 335.017 105.696C334.206 104.843 333.225 104.181 332.073 103.712C330.964 103.2 329.726 102.944 328.361 102.944C326.953 102.944 325.673 103.2 324.521 103.712C323.412 104.181 322.452 104.843 321.641 105.696C320.83 106.549 320.19 107.552 319.721 108.704C319.252 109.813 318.974 111.008 318.889 112.288H337.897ZM343.145 121.504C342.42 125.216 340.82 128.011 338.345 129.888C335.87 131.765 332.756 132.704 329.001 132.704C326.356 132.704 324.052 132.277 322.089 131.424C320.169 130.571 318.548 129.376 317.225 127.84C315.902 126.304 314.9 124.469 314.217 122.336C313.577 120.203 313.214 117.877 313.129 115.36C313.129 112.843 313.513 110.539 314.281 108.448C315.049 106.357 316.116 104.544 317.481 103.008C318.889 101.472 320.532 100.277 322.409 99.424C324.329 98.5707 326.42 98.144 328.681 98.144C331.625 98.144 334.057 98.7627 335.977 100C337.94 101.195 339.497 102.731 340.649 104.608C341.844 106.485 342.654 108.533 343.081 110.752C343.55 112.971 343.742 115.083 343.657 117.088H318.889C318.846 118.539 319.017 119.925 319.401 121.248C319.785 122.528 320.404 123.68 321.257 124.704C322.11 125.685 323.198 126.475 324.521 127.072C325.844 127.669 327.401 127.968 329.193 127.968C331.497 127.968 333.374 127.435 334.825 126.368C336.318 125.301 337.3 123.68 337.769 121.504H343.145ZM348.016 98.912H353.136V104.16H353.264C355.525 100.149 359.109 98.144 364.016 98.144C366.192 98.144 368.005 98.4427 369.456 99.04C370.907 99.6373 372.08 100.469 372.976 101.536C373.872 102.603 374.491 103.883 374.832 105.376C375.216 106.827 375.408 108.448 375.408 110.24V132H369.968V109.6C369.968 107.552 369.371 105.931 368.176 104.736C366.981 103.541 365.339 102.944 363.248 102.944C361.584 102.944 360.133 103.2 358.896 103.712C357.701 104.224 356.699 104.949 355.888 105.888C355.077 106.827 354.459 107.936 354.032 109.216C353.648 110.453 353.456 111.819 353.456 113.312V132H348.016V98.912ZM404.763 109.536C404.336 107.445 403.44 105.824 402.075 104.672C400.709 103.52 398.875 102.944 396.571 102.944C394.608 102.944 392.965 103.307 391.643 104.032C390.32 104.757 389.253 105.717 388.443 106.912C387.675 108.107 387.12 109.493 386.779 111.072C386.437 112.608 386.267 114.208 386.267 115.872C386.267 117.408 386.437 118.901 386.779 120.352C387.163 121.803 387.739 123.104 388.507 124.256C389.275 125.365 390.277 126.261 391.515 126.944C392.752 127.627 394.224 127.968 395.931 127.968C398.619 127.968 400.709 127.264 402.203 125.856C403.739 124.448 404.677 122.464 405.019 119.904H410.587C409.989 124 408.453 127.157 405.979 129.376C403.547 131.595 400.219 132.704 395.995 132.704C393.477 132.704 391.237 132.299 389.275 131.488C387.355 130.677 385.733 129.525 384.411 128.032C383.131 126.539 382.149 124.768 381.467 122.72C380.827 120.629 380.507 118.347 380.507 115.872C380.507 113.397 380.827 111.093 381.467 108.96C382.107 106.784 383.067 104.907 384.347 103.328C385.669 101.707 387.312 100.448 389.275 99.552C391.237 98.6133 393.52 98.144 396.123 98.144C398 98.144 399.749 98.3787 401.371 98.848C403.035 99.2747 404.485 99.9573 405.723 100.896C407.003 101.835 408.048 103.029 408.859 104.48C409.669 105.888 410.181 107.573 410.395 109.536H404.763ZM438.369 112.288C438.284 111.008 437.985 109.792 437.473 108.64C437.004 107.488 436.343 106.507 435.489 105.696C434.679 104.843 433.697 104.181 432.545 103.712C431.436 103.2 430.199 102.944 428.833 102.944C427.425 102.944 426.145 103.2 424.993 103.712C423.884 104.181 422.924 104.843 422.113 105.696C421.303 106.549 420.663 107.552 420.193 108.704C419.724 109.813 419.447 111.008 419.361 112.288H438.369ZM443.617 121.504C442.892 125.216 441.292 128.011 438.817 129.888C436.343 131.765 433.228 132.704 429.473 132.704C426.828 132.704 424.524 132.277 422.561 131.424C420.641 130.571 419.02 129.376 417.697 127.84C416.375 126.304 415.372 124.469 414.689 122.336C414.049 120.203 413.687 117.877 413.601 115.36C413.601 112.843 413.985 110.539 414.753 108.448C415.521 106.357 416.588 104.544 417.953 103.008C419.361 101.472 421.004 100.277 422.881 99.424C424.801 98.5707 426.892 98.144 429.153 98.144C432.097 98.144 434.529 98.7627 436.449 100C438.412 101.195 439.969 102.731 441.121 104.608C442.316 106.485 443.127 108.533 443.553 110.752C444.023 112.971 444.215 115.083 444.129 117.088H419.361C419.319 118.539 419.489 119.925 419.873 121.248C420.257 122.528 420.876 123.68 421.729 124.704C422.583 125.685 423.671 126.475 424.993 127.072C426.316 127.669 427.873 127.968 429.665 127.968C431.969 127.968 433.847 127.435 435.297 126.368C436.791 125.301 437.772 123.68 438.241 121.504H443.617ZM451.816 121.568C451.859 122.763 452.136 123.787 452.648 124.64C453.16 125.451 453.822 126.112 454.632 126.624C455.486 127.093 456.424 127.435 457.448 127.648C458.515 127.861 459.603 127.968 460.712 127.968C461.566 127.968 462.462 127.904 463.4 127.776C464.339 127.648 465.192 127.413 465.96 127.072C466.771 126.731 467.432 126.24 467.944 125.6C468.456 124.917 468.712 124.064 468.712 123.04C468.712 121.632 468.179 120.565 467.112 119.84C466.046 119.115 464.702 118.539 463.08 118.112C461.502 117.643 459.774 117.237 457.896 116.896C456.019 116.512 454.27 116 452.648 115.36C451.07 114.677 449.747 113.739 448.68 112.544C447.614 111.349 447.08 109.685 447.08 107.552C447.08 105.888 447.443 104.459 448.168 103.264C448.936 102.069 449.896 101.109 451.048 100.384C452.243 99.616 453.566 99.0613 455.016 98.72C456.51 98.336 457.982 98.144 459.432 98.144C461.31 98.144 463.038 98.3147 464.616 98.656C466.195 98.9547 467.582 99.5093 468.776 100.32C470.014 101.088 470.995 102.155 471.72 103.52C472.446 104.843 472.872 106.507 473 108.512H467.56C467.475 107.445 467.198 106.571 466.728 105.888C466.259 105.163 465.662 104.587 464.936 104.16C464.211 103.733 463.4 103.435 462.504 103.264C461.651 103.051 460.776 102.944 459.88 102.944C459.07 102.944 458.238 103.008 457.384 103.136C456.574 103.264 455.827 103.499 455.144 103.84C454.462 104.139 453.907 104.565 453.48 105.12C453.054 105.632 452.84 106.315 452.84 107.168C452.84 108.107 453.16 108.896 453.8 109.536C454.483 110.133 455.336 110.645 456.36 111.072C457.384 111.456 458.536 111.797 459.816 112.096C461.096 112.352 462.376 112.629 463.656 112.928C465.022 113.227 466.344 113.589 467.624 114.016C468.947 114.443 470.099 115.019 471.08 115.744C472.104 116.427 472.915 117.301 473.512 118.368C474.152 119.435 474.472 120.757 474.472 122.336C474.472 124.341 474.046 126.005 473.192 127.328C472.382 128.651 471.294 129.717 469.928 130.528C468.606 131.339 467.091 131.893 465.384 132.192C463.72 132.533 462.056 132.704 460.392 132.704C458.558 132.704 456.808 132.512 455.144 132.128C453.48 131.744 452.008 131.125 450.728 130.272C449.448 129.376 448.424 128.224 447.656 126.816C446.888 125.365 446.462 123.616 446.376 121.568H451.816ZM5.12 158.304H13.44L27.84 196.704L42.304 158.304H50.624V204H44.864V165.984H44.736L30.464 204H25.28L11.008 165.984H10.88V204H5.12V158.304ZM87.878 203.872C86.9393 204.427 85.638 204.704 83.974 204.704C82.566 204.704 81.4353 204.32 80.582 203.552C79.7713 202.741 79.366 201.44 79.366 199.648C77.8727 201.44 76.1233 202.741 74.118 203.552C72.1553 204.32 70.022 204.704 67.718 204.704C66.2247 204.704 64.7953 204.533 63.43 204.192C62.1073 203.851 60.9553 203.317 59.974 202.592C58.9927 201.867 58.2033 200.928 57.606 199.776C57.0513 198.581 56.774 197.152 56.774 195.488C56.774 193.611 57.094 192.075 57.734 190.88C58.374 189.685 59.206 188.725 60.23 188C61.2967 187.232 62.4913 186.656 63.814 186.272C65.1793 185.888 66.566 185.568 67.974 185.312C69.4673 185.013 70.8753 184.8 72.198 184.672C73.5633 184.501 74.758 184.288 75.782 184.032C76.806 183.733 77.6167 183.328 78.214 182.816C78.8113 182.261 79.11 181.472 79.11 180.448C79.11 179.253 78.8753 178.293 78.406 177.568C77.9793 176.843 77.4033 176.288 76.678 175.904C75.9953 175.52 75.206 175.264 74.31 175.136C73.4567 175.008 72.6033 174.944 71.75 174.944C69.446 174.944 67.526 175.392 65.99 176.288C64.454 177.141 63.622 178.784 63.494 181.216H58.054C58.1393 179.168 58.566 177.44 59.334 176.032C60.102 174.624 61.126 173.493 62.406 172.64C63.686 171.744 65.1367 171.104 66.758 170.72C68.422 170.336 70.1927 170.144 72.07 170.144C73.5633 170.144 75.0353 170.251 76.486 170.464C77.9793 170.677 79.3233 171.125 80.518 171.808C81.7127 172.448 82.6727 173.365 83.398 174.56C84.1233 175.755 84.486 177.312 84.486 179.232V196.256C84.486 197.536 84.55 198.475 84.678 199.072C84.8487 199.669 85.3607 199.968 86.214 199.968C86.6833 199.968 87.238 199.861 87.878 199.648V203.872ZM79.046 186.912C78.3633 187.424 77.4673 187.808 76.358 188.064C75.2487 188.277 74.0753 188.469 72.838 188.64C71.6433 188.768 70.4273 188.939 69.19 189.152C67.9527 189.323 66.8433 189.621 65.862 190.048C64.8807 190.475 64.07 191.093 63.43 191.904C62.8327 192.672 62.534 193.739 62.534 195.104C62.534 196 62.7047 196.768 63.046 197.408C63.43 198.005 63.8993 198.496 64.454 198.88C65.0513 199.264 65.734 199.541 66.502 199.712C67.27 199.883 68.0807 199.968 68.934 199.968C70.726 199.968 72.262 199.733 73.542 199.264C74.822 198.752 75.8673 198.133 76.678 197.408C77.4887 196.64 78.086 195.829 78.47 194.976C78.854 194.08 79.046 193.248 79.046 192.48V186.912ZM91.469 170.912H96.589V177.888H96.717C98.0397 175.2 99.661 173.216 101.581 171.936C103.501 170.656 105.933 170.059 108.877 170.144V175.904C106.701 175.904 104.845 176.203 103.309 176.8C101.773 177.397 100.536 178.272 99.597 179.424C98.6583 180.576 97.9757 181.984 97.549 183.648C97.1223 185.269 96.909 187.147 96.909 189.28V204H91.469V170.912ZM112.014 158.304H117.454V185.376L132.558 170.912H139.854L126.734 182.944L140.814 204H133.902L122.574 186.72L117.454 191.456V204H112.014V158.304ZM166.577 184.288C166.492 183.008 166.193 181.792 165.681 180.64C165.212 179.488 164.55 178.507 163.697 177.696C162.886 176.843 161.905 176.181 160.753 175.712C159.644 175.2 158.406 174.944 157.041 174.944C155.633 174.944 154.353 175.2 153.201 175.712C152.092 176.181 151.132 176.843 150.321 177.696C149.51 178.549 148.87 179.552 148.401 180.704C147.932 181.813 147.654 183.008 147.569 184.288H166.577ZM171.825 193.504C171.1 197.216 169.5 200.011 167.025 201.888C164.55 203.765 161.436 204.704 157.681 204.704C155.036 204.704 152.732 204.277 150.769 203.424C148.849 202.571 147.228 201.376 145.905 199.84C144.582 198.304 143.58 196.469 142.897 194.336C142.257 192.203 141.894 189.877 141.809 187.36C141.809 184.843 142.193 182.539 142.961 180.448C143.729 178.357 144.796 176.544 146.161 175.008C147.569 173.472 149.212 172.277 151.089 171.424C153.009 170.571 155.1 170.144 157.361 170.144C160.305 170.144 162.737 170.763 164.657 172C166.62 173.195 168.177 174.731 169.329 176.608C170.524 178.485 171.334 180.533 171.761 182.752C172.23 184.971 172.422 187.083 172.337 189.088H147.569C147.526 190.539 147.697 191.925 148.081 193.248C148.465 194.528 149.084 195.68 149.937 196.704C150.79 197.685 151.878 198.475 153.201 199.072C154.524 199.669 156.081 199.968 157.873 199.968C160.177 199.968 162.054 199.435 163.505 198.368C164.998 197.301 165.98 195.68 166.449 193.504H171.825ZM184.248 170.912H190.84V175.712H184.248V196.256C184.248 196.896 184.291 197.408 184.376 197.792C184.504 198.176 184.717 198.475 185.016 198.688C185.315 198.901 185.72 199.051 186.232 199.136C186.787 199.179 187.491 199.2 188.344 199.2H190.84V204H186.68C185.272 204 184.056 203.915 183.032 203.744C182.051 203.531 181.24 203.168 180.6 202.656C180.003 202.144 179.555 201.419 179.256 200.48C178.957 199.541 178.808 198.304 178.808 196.768V175.712H173.176V170.912H178.808V160.992H184.248V170.912ZM201.364 164.96H195.924V158.304H201.364V164.96ZM195.924 170.912H201.364V204H195.924V170.912ZM208.511 170.912H213.631V176.16H213.759C216.02 172.149 219.604 170.144 224.511 170.144C226.687 170.144 228.5 170.443 229.951 171.04C231.402 171.637 232.575 172.469 233.471 173.536C234.367 174.603 234.986 175.883 235.327 177.376C235.711 178.827 235.903 180.448 235.903 182.24V204H230.463V181.6C230.463 179.552 229.866 177.931 228.671 176.736C227.476 175.541 225.834 174.944 223.743 174.944C222.079 174.944 220.628 175.2 219.391 175.712C218.196 176.224 217.194 176.949 216.383 177.888C215.572 178.827 214.954 179.936 214.527 181.216C214.143 182.453 213.951 183.819 213.951 185.312V204H208.511V170.912ZM271.337 201.184C271.337 206.603 270.1 210.656 267.625 213.344C265.151 216.032 261.268 217.376 255.977 217.376C254.441 217.376 252.863 217.205 251.241 216.864C249.663 216.523 248.212 215.968 246.889 215.2C245.609 214.432 244.543 213.429 243.689 212.192C242.836 210.955 242.367 209.44 242.281 207.648H247.721C247.764 208.629 248.063 209.461 248.617 210.144C249.215 210.827 249.919 211.381 250.729 211.808C251.583 212.235 252.5 212.533 253.481 212.704C254.463 212.917 255.401 213.024 256.297 213.024C258.089 213.024 259.604 212.704 260.841 212.064C262.079 211.467 263.103 210.613 263.913 209.504C264.724 208.437 265.3 207.136 265.641 205.6C266.025 204.064 266.217 202.379 266.217 200.544V198.368H266.089C265.151 200.416 263.721 201.931 261.801 202.912C259.924 203.851 257.919 204.32 255.785 204.32C253.311 204.32 251.156 203.872 249.321 202.976C247.487 202.08 245.951 200.885 244.713 199.392C243.476 197.856 242.537 196.085 241.897 194.08C241.3 192.032 241.001 189.877 241.001 187.616C241.001 185.653 241.257 183.648 241.769 181.6C242.281 179.509 243.135 177.632 244.329 175.968C245.524 174.261 247.103 172.875 249.065 171.808C251.028 170.699 253.439 170.144 256.297 170.144C258.388 170.144 260.308 170.613 262.057 171.552C263.807 172.448 265.172 173.813 266.153 175.648H266.217V170.912H271.337V201.184ZM256.105 199.584C257.897 199.584 259.412 199.221 260.649 198.496C261.929 197.728 262.953 196.747 263.721 195.552C264.489 194.315 265.044 192.928 265.385 191.392C265.769 189.856 265.961 188.32 265.961 186.784C265.961 185.333 265.791 183.904 265.449 182.496C265.108 181.088 264.553 179.829 263.785 178.72C263.06 177.568 262.1 176.651 260.905 175.968C259.711 175.285 258.26 174.944 256.553 174.944C254.804 174.944 253.311 175.285 252.073 175.968C250.836 176.608 249.812 177.483 249.001 178.592C248.233 179.701 247.657 180.981 247.273 182.432C246.932 183.883 246.761 185.397 246.761 186.976C246.761 188.469 246.911 189.963 247.209 191.456C247.508 192.949 248.02 194.315 248.745 195.552C249.471 196.747 250.431 197.728 251.625 198.496C252.82 199.221 254.313 199.584 256.105 199.584ZM295.692 158.304H317.196C321.548 158.304 324.94 159.371 327.372 161.504C329.847 163.637 331.084 166.56 331.084 170.272C331.084 173.045 330.444 175.477 329.164 177.568C327.927 179.659 325.921 181.088 323.148 181.856V181.984C324.471 182.24 325.537 182.667 326.348 183.264C327.201 183.861 327.863 184.587 328.332 185.44C328.844 186.251 329.207 187.168 329.42 188.192C329.676 189.216 329.868 190.283 329.996 191.392C330.081 192.501 330.145 193.632 330.188 194.784C330.231 195.936 330.337 197.067 330.508 198.176C330.679 199.285 330.913 200.352 331.212 201.376C331.553 202.357 332.044 203.232 332.684 204H325.9C325.473 203.531 325.175 202.891 325.004 202.08C324.876 201.269 324.791 200.373 324.748 199.392C324.705 198.368 324.663 197.28 324.62 196.128C324.577 194.976 324.449 193.845 324.236 192.736C324.065 191.627 323.852 190.581 323.596 189.6C323.34 188.576 322.935 187.701 322.38 186.976C321.825 186.208 321.1 185.611 320.204 185.184C319.308 184.715 318.113 184.48 316.62 184.48H301.772V204H295.692V158.304ZM314.444 179.36C315.852 179.36 317.196 179.253 318.476 179.04C319.756 178.827 320.865 178.421 321.804 177.824C322.785 177.184 323.553 176.352 324.108 175.328C324.705 174.261 325.004 172.896 325.004 171.232C325.004 168.928 324.364 167.051 323.084 165.6C321.804 164.149 319.735 163.424 316.876 163.424H301.772V179.36H314.444ZM360.305 184.288C360.219 183.008 359.921 181.792 359.409 180.64C358.939 179.488 358.278 178.507 357.425 177.696C356.614 176.843 355.633 176.181 354.481 175.712C353.371 175.2 352.134 174.944 350.769 174.944C349.361 174.944 348.081 175.2 346.929 175.712C345.819 176.181 344.859 176.843 344.049 177.696C343.238 178.549 342.598 179.552 342.129 180.704C341.659 181.813 341.382 183.008 341.297 184.288H360.305ZM365.553 193.504C364.827 197.216 363.227 200.011 360.753 201.888C358.278 203.765 355.163 204.704 351.409 204.704C348.763 204.704 346.459 204.277 344.497 203.424C342.577 202.571 340.955 201.376 339.633 199.84C338.31 198.304 337.307 196.469 336.625 194.336C335.985 192.203 335.622 189.877 335.537 187.36C335.537 184.843 335.921 182.539 336.689 180.448C337.457 178.357 338.523 176.544 339.889 175.008C341.297 173.472 342.939 172.277 344.817 171.424C346.737 170.571 348.827 170.144 351.089 170.144C354.033 170.144 356.465 170.763 358.385 172C360.347 173.195 361.905 174.731 363.057 176.608C364.251 178.485 365.062 180.533 365.489 182.752C365.958 184.971 366.15 187.083 366.065 189.088H341.297C341.254 190.539 341.425 191.925 341.809 193.248C342.193 194.528 342.811 195.68 343.665 196.704C344.518 197.685 345.606 198.475 346.929 199.072C348.251 199.669 349.809 199.968 351.601 199.968C353.905 199.968 355.782 199.435 357.233 198.368C358.726 197.301 359.707 195.68 360.177 193.504H365.553ZM392.888 181.536C392.461 179.445 391.565 177.824 390.2 176.672C388.834 175.52 387 174.944 384.696 174.944C382.733 174.944 381.09 175.307 379.768 176.032C378.445 176.757 377.378 177.717 376.568 178.912C375.8 180.107 375.245 181.493 374.904 183.072C374.562 184.608 374.392 186.208 374.392 187.872C374.392 189.408 374.562 190.901 374.904 192.352C375.288 193.803 375.864 195.104 376.632 196.256C377.4 197.365 378.402 198.261 379.64 198.944C380.877 199.627 382.349 199.968 384.056 199.968C386.744 199.968 388.834 199.264 390.328 197.856C391.864 196.448 392.802 194.464 393.144 191.904H398.712C398.114 196 396.578 199.157 394.104 201.376C391.672 203.595 388.344 204.704 384.12 204.704C381.602 204.704 379.362 204.299 377.4 203.488C375.48 202.677 373.858 201.525 372.536 200.032C371.256 198.539 370.274 196.768 369.592 194.72C368.952 192.629 368.632 190.347 368.632 187.872C368.632 185.397 368.952 183.093 369.592 180.96C370.232 178.784 371.192 176.907 372.472 175.328C373.794 173.707 375.437 172.448 377.4 171.552C379.362 170.613 381.645 170.144 384.248 170.144C386.125 170.144 387.874 170.379 389.496 170.848C391.16 171.275 392.61 171.957 393.848 172.896C395.128 173.835 396.173 175.029 396.984 176.48C397.794 177.888 398.306 179.573 398.52 181.536H392.888ZM409.278 164.96H403.838V158.304H409.278V164.96ZM403.838 170.912H409.278V204H403.838V170.912ZM416.618 170.912H422.058V175.392H422.186C423.082 173.557 424.49 172.235 426.41 171.424C428.33 170.571 430.442 170.144 432.746 170.144C435.306 170.144 437.525 170.613 439.402 171.552C441.322 172.491 442.901 173.771 444.138 175.392C445.418 176.971 446.378 178.805 447.018 180.896C447.658 182.987 447.978 185.205 447.978 187.552C447.978 189.899 447.658 192.117 447.018 194.208C446.421 196.299 445.482 198.133 444.202 199.712C442.965 201.248 441.386 202.464 439.466 203.36C437.589 204.256 435.391 204.704 432.874 204.704C432.063 204.704 431.146 204.619 430.122 204.448C429.141 204.277 428.159 204 427.178 203.616C426.197 203.232 425.258 202.72 424.362 202.08C423.509 201.397 422.783 200.565 422.186 199.584H422.058V216.608H416.618V170.912ZM442.218 187.168C442.218 185.632 442.005 184.139 441.578 182.688C441.194 181.195 440.575 179.872 439.722 178.72C438.911 177.568 437.845 176.651 436.522 175.968C435.242 175.285 433.727 174.944 431.978 174.944C430.143 174.944 428.586 175.307 427.306 176.032C426.026 176.757 424.981 177.717 424.17 178.912C423.359 180.064 422.762 181.387 422.378 182.88C422.037 184.373 421.866 185.888 421.866 187.424C421.866 189.045 422.058 190.624 422.442 192.16C422.826 193.653 423.423 194.976 424.234 196.128C425.087 197.28 426.175 198.219 427.498 198.944C428.821 199.627 430.421 199.968 432.298 199.968C434.175 199.968 435.733 199.605 436.97 198.88C438.25 198.155 439.274 197.195 440.042 196C440.81 194.805 441.365 193.44 441.706 191.904C442.047 190.368 442.218 188.789 442.218 187.168ZM476.059 184.288C475.974 183.008 475.675 181.792 475.163 180.64C474.694 179.488 474.033 178.507 473.179 177.696C472.369 176.843 471.387 176.181 470.235 175.712C469.126 175.2 467.889 174.944 466.523 174.944C465.115 174.944 463.835 175.2 462.683 175.712C461.574 176.181 460.614 176.843 459.803 177.696C458.993 178.549 458.353 179.552 457.883 180.704C457.414 181.813 457.137 183.008 457.051 184.288H476.059ZM481.307 193.504C480.582 197.216 478.982 200.011 476.507 201.888C474.033 203.765 470.918 204.704 467.163 204.704C464.518 204.704 462.214 204.277 460.251 203.424C458.331 202.571 456.71 201.376 455.387 199.84C454.065 198.304 453.062 196.469 452.379 194.336C451.739 192.203 451.377 189.877 451.291 187.36C451.291 184.843 451.675 182.539 452.443 180.448C453.211 178.357 454.278 176.544 455.643 175.008C457.051 173.472 458.694 172.277 460.571 171.424C462.491 170.571 464.582 170.144 466.843 170.144C469.787 170.144 472.219 170.763 474.139 172C476.102 173.195 477.659 174.731 478.811 176.608C480.006 178.485 480.817 180.533 481.243 182.752C481.713 184.971 481.905 187.083 481.819 189.088H457.051C457.009 190.539 457.179 191.925 457.563 193.248C457.947 194.528 458.566 195.68 459.419 196.704C460.273 197.685 461.361 198.475 462.683 199.072C464.006 199.669 465.563 199.968 467.355 199.968C469.659 199.968 471.537 199.435 472.987 198.368C474.481 197.301 475.462 195.68 475.931 193.504H481.307ZM489.506 193.568C489.549 194.763 489.826 195.787 490.338 196.64C490.85 197.451 491.512 198.112 492.322 198.624C493.176 199.093 494.114 199.435 495.138 199.648C496.205 199.861 497.293 199.968 498.402 199.968C499.256 199.968 500.152 199.904 501.09 199.776C502.029 199.648 502.882 199.413 503.65 199.072C504.461 198.731 505.122 198.24 505.634 197.6C506.146 196.917 506.402 196.064 506.402 195.04C506.402 193.632 505.869 192.565 504.802 191.84C503.736 191.115 502.392 190.539 500.77 190.112C499.192 189.643 497.464 189.237 495.586 188.896C493.709 188.512 491.96 188 490.338 187.36C488.76 186.677 487.437 185.739 486.37 184.544C485.304 183.349 484.77 181.685 484.77 179.552C484.77 177.888 485.133 176.459 485.858 175.264C486.626 174.069 487.586 173.109 488.738 172.384C489.933 171.616 491.256 171.061 492.706 170.72C494.2 170.336 495.672 170.144 497.122 170.144C499 170.144 500.728 170.315 502.306 170.656C503.885 170.955 505.272 171.509 506.466 172.32C507.704 173.088 508.685 174.155 509.41 175.52C510.136 176.843 510.562 178.507 510.69 180.512H505.25C505.165 179.445 504.888 178.571 504.418 177.888C503.949 177.163 503.352 176.587 502.626 176.16C501.901 175.733 501.09 175.435 500.194 175.264C499.341 175.051 498.466 174.944 497.57 174.944C496.76 174.944 495.928 175.008 495.074 175.136C494.264 175.264 493.517 175.499 492.834 175.84C492.152 176.139 491.597 176.565 491.17 177.12C490.744 177.632 490.53 178.315 490.53 179.168C490.53 180.107 490.85 180.896 491.49 181.536C492.173 182.133 493.026 182.645 494.05 183.072C495.074 183.456 496.226 183.797 497.506 184.096C498.786 184.352 500.066 184.629 501.346 184.928C502.712 185.227 504.034 185.589 505.314 186.016C506.637 186.443 507.789 187.019 508.77 187.744C509.794 188.427 510.605 189.301 511.202 190.368C511.842 191.435 512.162 192.757 512.162 194.336C512.162 196.341 511.736 198.005 510.882 199.328C510.072 200.651 508.984 201.717 507.618 202.528C506.296 203.339 504.781 203.893 503.074 204.192C501.41 204.533 499.746 204.704 498.082 204.704C496.248 204.704 494.498 204.512 492.834 204.128C491.17 203.744 489.698 203.125 488.418 202.272C487.138 201.376 486.114 200.224 485.346 198.816C484.578 197.365 484.152 195.616 484.066 193.568H489.506Z" fill="#24A148"/>
</g>
<path d="M4.288 88.304H9.728V105.392H9.856C10.752 103.557 12.16 102.235 14.08 101.424C16 100.571 18.112 100.144 20.416 100.144C22.976 100.144 25.1947 100.613 27.072 101.552C28.992 102.491 30.5707 103.771 31.808 105.392C33.088 106.971 34.048 108.805 34.688 110.896C35.328 112.987 35.648 115.205 35.648 117.552C35.648 119.899 35.328 122.117 34.688 124.208C34.0907 126.299 33.152 128.133 31.872 129.712C30.6347 131.248 29.056 132.464 27.136 133.36C25.2587 134.256 23.0613 134.704 20.544 134.704C19.7333 134.704 18.816 134.619 17.792 134.448C16.8107 134.277 15.8293 134 14.848 133.616C13.8667 133.232 12.928 132.72 12.032 132.08C11.1787 131.397 10.4533 130.565 9.856 129.584H9.728V134H4.288V88.304ZM29.888 117.168C29.888 115.632 29.6747 114.139 29.248 112.688C28.864 111.195 28.2453 109.872 27.392 108.72C26.5813 107.568 25.5147 106.651 24.192 105.968C22.912 105.285 21.3973 104.944 19.648 104.944C17.8133 104.944 16.256 105.307 14.976 106.032C13.696 106.757 12.6507 107.717 11.84 108.912C11.0293 110.064 10.432 111.387 10.048 112.88C9.70667 114.373 9.536 115.888 9.536 117.424C9.536 119.045 9.728 120.624 10.112 122.16C10.496 123.653 11.0933 124.976 11.904 126.128C12.7573 127.28 13.8453 128.219 15.168 128.944C16.4907 129.627 18.0907 129.968 19.968 129.968C21.8453 129.968 23.4027 129.605 24.64 128.88C25.92 128.155 26.944 127.195 27.712 126C28.48 124.805 29.0347 123.44 29.376 121.904C29.7173 120.368 29.888 118.789 29.888 117.168ZM53.7455 138.416C53.1055 140.037 52.4655 141.403 51.8255 142.512C51.2282 143.621 50.5455 144.517 49.7775 145.2C49.0522 145.925 48.2202 146.437 47.2815 146.736C46.3855 147.077 45.3402 147.248 44.1455 147.248C43.5055 147.248 42.8655 147.205 42.2255 147.12C41.5855 147.035 40.9668 146.885 40.3695 146.672V141.68C40.8388 141.893 41.3722 142.064 41.9695 142.192C42.6095 142.363 43.1428 142.448 43.5695 142.448C44.6788 142.448 45.5962 142.171 46.3215 141.616C47.0895 141.104 47.6655 140.357 48.0495 139.376L50.2895 133.808L37.1695 100.912H43.3135L52.9775 127.984H53.1055L62.3855 100.912H68.1455L53.7455 138.416ZM95.558 100.912H102.15V105.712H95.558V126.256C95.558 126.896 95.6007 127.408 95.686 127.792C95.814 128.176 96.0273 128.475 96.326 128.688C96.6247 128.901 97.03 129.051 97.542 129.136C98.0967 129.179 98.8007 129.2 99.654 129.2H102.15V134H97.99C96.582 134 95.366 133.915 94.342 133.744C93.3607 133.531 92.55 133.168 91.91 132.656C91.3127 132.144 90.8647 131.419 90.566 130.48C90.2673 129.541 90.118 128.304 90.118 126.768V105.712H84.486V100.912H90.118V90.992H95.558V100.912ZM106.913 88.304H112.353V105.776H112.481C112.908 104.752 113.505 103.899 114.273 103.216C115.041 102.491 115.895 101.915 116.833 101.488C117.815 101.019 118.817 100.677 119.841 100.464C120.908 100.251 121.932 100.144 122.913 100.144C125.089 100.144 126.903 100.443 128.353 101.04C129.804 101.637 130.977 102.469 131.873 103.536C132.769 104.603 133.388 105.883 133.729 107.376C134.113 108.827 134.305 110.448 134.305 112.24V134H128.865V111.6C128.865 109.552 128.268 107.931 127.073 106.736C125.879 105.541 124.236 104.944 122.145 104.944C120.481 104.944 119.031 105.2 117.793 105.712C116.599 106.224 115.596 106.949 114.785 107.888C113.975 108.827 113.356 109.936 112.929 111.216C112.545 112.453 112.353 113.819 112.353 115.312V134H106.913V88.304ZM164.172 114.288C164.087 113.008 163.788 111.792 163.276 110.64C162.807 109.488 162.145 108.507 161.292 107.696C160.481 106.843 159.5 106.181 158.348 105.712C157.239 105.2 156.001 104.944 154.636 104.944C153.228 104.944 151.948 105.2 150.796 105.712C149.687 106.181 148.727 106.843 147.916 107.696C147.105 108.549 146.465 109.552 145.996 110.704C145.527 111.813 145.249 113.008 145.164 114.288H164.172ZM169.42 123.504C168.695 127.216 167.095 130.011 164.62 131.888C162.145 133.765 159.031 134.704 155.276 134.704C152.631 134.704 150.327 134.277 148.364 133.424C146.444 132.571 144.823 131.376 143.5 129.84C142.177 128.304 141.175 126.469 140.492 124.336C139.852 122.203 139.489 119.877 139.404 117.36C139.404 114.843 139.788 112.539 140.556 110.448C141.324 108.357 142.391 106.544 143.756 105.008C145.164 103.472 146.807 102.277 148.684 101.424C150.604 100.571 152.695 100.144 154.956 100.144C157.9 100.144 160.332 100.763 162.252 102C164.215 103.195 165.772 104.731 166.924 106.608C168.119 108.485 168.929 110.533 169.356 112.752C169.825 114.971 170.017 117.083 169.932 119.088H145.164C145.121 120.539 145.292 121.925 145.676 123.248C146.06 124.528 146.679 125.68 147.532 126.704C148.385 127.685 149.473 128.475 150.796 129.072C152.119 129.669 153.676 129.968 155.468 129.968C157.772 129.968 159.649 129.435 161.1 128.368C162.593 127.301 163.575 125.68 164.044 123.504H169.42ZM213.287 111.536C212.861 109.445 211.965 107.824 210.599 106.672C209.234 105.52 207.399 104.944 205.095 104.944C203.133 104.944 201.49 105.307 200.167 106.032C198.845 106.757 197.778 107.717 196.967 108.912C196.199 110.107 195.645 111.493 195.303 113.072C194.962 114.608 194.791 116.208 194.791 117.872C194.791 119.408 194.962 120.901 195.303 122.352C195.687 123.803 196.263 125.104 197.031 126.256C197.799 127.365 198.802 128.261 200.039 128.944C201.277 129.627 202.749 129.968 204.455 129.968C207.143 129.968 209.234 129.264 210.727 127.856C212.263 126.448 213.202 124.464 213.543 121.904H219.111C218.514 126 216.978 129.157 214.503 131.376C212.071 133.595 208.743 134.704 204.519 134.704C202.002 134.704 199.762 134.299 197.799 133.488C195.879 132.677 194.258 131.525 192.935 130.032C191.655 128.539 190.674 126.768 189.991 124.72C189.351 122.629 189.031 120.347 189.031 117.872C189.031 115.397 189.351 113.093 189.991 110.96C190.631 108.784 191.591 106.907 192.871 105.328C194.194 103.707 195.837 102.448 197.799 101.552C199.762 100.613 202.045 100.144 204.647 100.144C206.525 100.144 208.274 100.379 209.895 100.848C211.559 101.275 213.01 101.957 214.247 102.896C215.527 103.835 216.573 105.029 217.383 106.48C218.194 107.888 218.706 109.573 218.919 111.536H213.287ZM227.886 117.488C227.886 119.493 228.142 121.285 228.654 122.864C229.209 124.4 229.956 125.701 230.894 126.768C231.833 127.792 232.921 128.581 234.158 129.136C235.438 129.691 236.782 129.968 238.19 129.968C239.598 129.968 240.921 129.691 242.158 129.136C243.438 128.581 244.548 127.792 245.486 126.768C246.425 125.701 247.15 124.4 247.662 122.864C248.217 121.285 248.494 119.493 248.494 117.488C248.494 115.483 248.217 113.712 247.662 112.176C247.15 110.597 246.425 109.275 245.486 108.208C244.548 107.141 243.438 106.331 242.158 105.776C240.921 105.221 239.598 104.944 238.19 104.944C236.782 104.944 235.438 105.221 234.158 105.776C232.921 106.331 231.833 107.141 230.894 108.208C229.956 109.275 229.209 110.597 228.654 112.176C228.142 113.712 227.886 115.483 227.886 117.488ZM222.126 117.488C222.126 115.056 222.468 112.795 223.15 110.704C223.833 108.571 224.857 106.736 226.222 105.2C227.588 103.621 229.273 102.384 231.278 101.488C233.284 100.592 235.588 100.144 238.19 100.144C240.836 100.144 243.14 100.592 245.102 101.488C247.108 102.384 248.793 103.621 250.158 105.2C251.524 106.736 252.548 108.571 253.23 110.704C253.913 112.795 254.254 115.056 254.254 117.488C254.254 119.92 253.913 122.181 253.23 124.272C252.548 126.363 251.524 128.197 250.158 129.776C248.793 131.312 247.108 132.528 245.102 133.424C243.14 134.277 240.836 134.704 238.19 134.704C235.588 134.704 233.284 134.277 231.278 133.424C229.273 132.528 227.588 131.312 226.222 129.776C224.857 128.197 223.833 126.363 223.15 124.272C222.468 122.181 222.126 119.92 222.126 117.488ZM259.388 100.912H264.508V105.776H264.636C267.111 102.021 270.674 100.144 275.324 100.144C277.372 100.144 279.228 100.571 280.892 101.424C282.556 102.277 283.73 103.728 284.412 105.776C285.522 103.984 286.972 102.597 288.764 101.616C290.599 100.635 292.604 100.144 294.78 100.144C296.444 100.144 297.938 100.336 299.26 100.72C300.626 101.061 301.778 101.616 302.716 102.384C303.698 103.152 304.444 104.155 304.956 105.392C305.511 106.587 305.788 108.037 305.788 109.744V134H300.348V112.304C300.348 111.28 300.263 110.32 300.092 109.424C299.922 108.528 299.602 107.76 299.132 107.12C298.663 106.437 298.002 105.904 297.148 105.52C296.338 105.136 295.271 104.944 293.948 104.944C291.26 104.944 289.148 105.712 287.612 107.248C286.076 108.784 285.308 110.832 285.308 113.392V134H279.868V112.304C279.868 111.237 279.762 110.256 279.548 109.36C279.378 108.464 279.058 107.696 278.588 107.056C278.119 106.373 277.479 105.861 276.668 105.52C275.9 105.136 274.898 104.944 273.66 104.944C272.082 104.944 270.716 105.264 269.564 105.904C268.455 106.544 267.538 107.312 266.812 108.208C266.13 109.104 265.618 110.043 265.276 111.024C264.978 111.963 264.828 112.752 264.828 113.392V134H259.388V100.912ZM312.671 100.912H317.791V105.776H317.919C320.394 102.021 323.956 100.144 328.607 100.144C330.655 100.144 332.511 100.571 334.175 101.424C335.839 102.277 337.012 103.728 337.695 105.776C338.804 103.984 340.255 102.597 342.047 101.616C343.882 100.635 345.887 100.144 348.063 100.144C349.727 100.144 351.22 100.336 352.543 100.72C353.908 101.061 355.06 101.616 355.999 102.384C356.98 103.152 357.727 104.155 358.239 105.392C358.794 106.587 359.071 108.037 359.071 109.744V134H353.631V112.304C353.631 111.28 353.546 110.32 353.375 109.424C353.204 108.528 352.884 107.76 352.415 107.12C351.946 106.437 351.284 105.904 350.431 105.52C349.62 105.136 348.554 104.944 347.231 104.944C344.543 104.944 342.431 105.712 340.895 107.248C339.359 108.784 338.591 110.832 338.591 113.392V134H333.151V112.304C333.151 111.237 333.044 110.256 332.831 109.36C332.66 108.464 332.34 107.696 331.871 107.056C331.402 106.373 330.762 105.861 329.951 105.52C329.183 105.136 328.18 104.944 326.943 104.944C325.364 104.944 323.999 105.264 322.847 105.904C321.738 106.544 320.82 107.312 320.095 108.208C319.412 109.104 318.9 110.043 318.559 111.024C318.26 111.963 318.111 112.752 318.111 113.392V134H312.671V100.912ZM393.346 134H388.226V128.752H388.098C386.946 130.8 385.474 132.315 383.682 133.296C381.89 134.235 379.778 134.704 377.346 134.704C375.17 134.704 373.356 134.427 371.906 133.872C370.455 133.275 369.282 132.443 368.386 131.376C367.49 130.309 366.85 129.051 366.466 127.6C366.124 126.107 365.954 124.464 365.954 122.672V100.912H371.394V123.312C371.394 125.36 371.991 126.981 373.186 128.176C374.38 129.371 376.023 129.968 378.114 129.968C379.778 129.968 381.207 129.712 382.402 129.2C383.639 128.688 384.663 127.963 385.474 127.024C386.284 126.085 386.882 124.997 387.266 123.76C387.692 122.48 387.906 121.093 387.906 119.6V100.912H393.346V134ZM400.236 100.912H405.356V106.16H405.484C407.745 102.149 411.329 100.144 416.236 100.144C418.412 100.144 420.225 100.443 421.676 101.04C423.127 101.637 424.3 102.469 425.196 103.536C426.092 104.603 426.711 105.883 427.052 107.376C427.436 108.827 427.628 110.448 427.628 112.24V134H422.188V111.6C422.188 109.552 421.591 107.931 420.396 106.736C419.201 105.541 417.559 104.944 415.468 104.944C413.804 104.944 412.353 105.2 411.116 105.712C409.921 106.224 408.919 106.949 408.108 107.888C407.297 108.827 406.679 109.936 406.252 111.216C405.868 112.453 405.676 113.819 405.676 115.312V134H400.236V100.912ZM440.278 94.96H434.838V88.304H440.278V94.96ZM434.838 100.912H440.278V134H434.838V100.912ZM454.978 100.912H461.57V105.712H454.978V126.256C454.978 126.896 455.021 127.408 455.106 127.792C455.234 128.176 455.447 128.475 455.746 128.688C456.045 128.901 456.45 129.051 456.962 129.136C457.517 129.179 458.221 129.2 459.074 129.2H461.57V134H457.41C456.002 134 454.786 133.915 453.762 133.744C452.781 133.531 451.97 133.168 451.33 132.656C450.733 132.144 450.285 131.419 449.986 130.48C449.687 129.541 449.538 128.304 449.538 126.768V105.712H443.906V100.912H449.538V90.992H454.978V100.912ZM479.325 138.416C478.685 140.037 478.045 141.403 477.405 142.512C476.808 143.621 476.125 144.517 475.357 145.2C474.632 145.925 473.8 146.437 472.861 146.736C471.965 147.077 470.92 147.248 469.725 147.248C469.085 147.248 468.445 147.205 467.805 147.12C467.165 147.035 466.547 146.885 465.949 146.672V141.68C466.419 141.893 466.952 142.064 467.549 142.192C468.189 142.363 468.723 142.448 469.149 142.448C470.259 142.448 471.176 142.171 471.901 141.616C472.669 141.104 473.245 140.357 473.629 139.376L475.869 133.808L462.749 100.912H468.893L478.557 127.984H478.685L487.965 100.912H493.725L479.325 138.416ZM493.519 126.896H500.623V133.36C500.623 135.792 500.069 137.883 498.959 139.632C497.85 141.381 496.058 142.619 493.583 143.344V140.144C494.309 139.888 494.906 139.504 495.375 138.992C495.887 138.523 496.293 137.989 496.591 137.392C496.89 136.837 497.082 136.261 497.167 135.664C497.295 135.067 497.338 134.512 497.295 134H493.519V126.896ZM527.609 105.712H522.041V100.912H527.609V95.984C527.609 93.296 528.377 91.2693 529.913 89.904C531.491 88.496 533.774 87.792 536.761 87.792C537.273 87.792 537.849 87.8347 538.489 87.92C539.171 88.0053 539.769 88.1333 540.281 88.304V93.04C539.811 92.8693 539.299 92.7627 538.745 92.72C538.19 92.6347 537.678 92.592 537.209 92.592C535.886 92.592 534.862 92.848 534.137 93.36C533.411 93.872 533.049 94.8533 533.049 96.304V100.912H539.449V105.712H533.049V134H527.609V105.712ZM546.994 117.488C546.994 119.493 547.25 121.285 547.762 122.864C548.317 124.4 549.063 125.701 550.002 126.768C550.941 127.792 552.029 128.581 553.266 129.136C554.546 129.691 555.89 129.968 557.298 129.968C558.706 129.968 560.029 129.691 561.266 129.136C562.546 128.581 563.655 127.792 564.594 126.768C565.533 125.701 566.258 124.4 566.77 122.864C567.325 121.285 567.602 119.493 567.602 117.488C567.602 115.483 567.325 113.712 566.77 112.176C566.258 110.597 565.533 109.275 564.594 108.208C563.655 107.141 562.546 106.331 561.266 105.776C560.029 105.221 558.706 104.944 557.298 104.944C555.89 104.944 554.546 105.221 553.266 105.776C552.029 106.331 550.941 107.141 550.002 108.208C549.063 109.275 548.317 110.597 547.762 112.176C547.25 113.712 546.994 115.483 546.994 117.488ZM541.234 117.488C541.234 115.056 541.575 112.795 542.258 110.704C542.941 108.571 543.965 106.736 545.33 105.2C546.695 103.621 548.381 102.384 550.386 101.488C552.391 100.592 554.695 100.144 557.298 100.144C559.943 100.144 562.247 100.592 564.21 101.488C566.215 102.384 567.901 103.621 569.266 105.2C570.631 106.736 571.655 108.571 572.338 110.704C573.021 112.795 573.362 115.056 573.362 117.488C573.362 119.92 573.021 122.181 572.338 124.272C571.655 126.363 570.631 128.197 569.266 129.776C567.901 131.312 566.215 132.528 564.21 133.424C562.247 134.277 559.943 134.704 557.298 134.704C554.695 134.704 552.391 134.277 550.386 133.424C548.381 132.528 546.695 131.312 545.33 129.776C543.965 128.197 542.941 126.363 542.258 124.272C541.575 122.181 541.234 119.92 541.234 117.488ZM578.304 100.912H583.424V107.888H583.552C584.875 105.2 586.496 103.216 588.416 101.936C590.336 100.656 592.768 100.059 595.712 100.144V105.904C593.536 105.904 591.68 106.203 590.144 106.8C588.608 107.397 587.371 108.272 586.432 109.424C585.493 110.576 584.811 111.984 584.384 113.648C583.957 115.269 583.744 117.147 583.744 119.28V134H578.304V100.912ZM622.613 100.912H629.205V105.712H622.613V126.256C622.613 126.896 622.656 127.408 622.741 127.792C622.869 128.176 623.082 128.475 623.381 128.688C623.68 128.901 624.085 129.051 624.597 129.136C625.152 129.179 625.856 129.2 626.709 129.2H629.205V134H625.045C623.637 134 622.421 133.915 621.397 133.744C620.416 133.531 619.605 133.168 618.965 132.656C618.368 132.144 617.92 131.419 617.621 130.48C617.322 129.541 617.173 128.304 617.173 126.768V105.712H611.541V100.912H617.173V90.992H622.613V100.912ZM633.968 88.304H639.408V105.776H639.536C639.963 104.752 640.56 103.899 641.328 103.216C642.096 102.491 642.95 101.915 643.888 101.488C644.87 101.019 645.872 100.677 646.896 100.464C647.963 100.251 648.987 100.144 649.968 100.144C652.144 100.144 653.958 100.443 655.408 101.04C656.859 101.637 658.032 102.469 658.928 103.536C659.824 104.603 660.443 105.883 660.784 107.376C661.168 108.827 661.36 110.448 661.36 112.24V134H655.92V111.6C655.92 109.552 655.323 107.931 654.128 106.736C652.934 105.541 651.291 104.944 649.2 104.944C647.536 104.944 646.086 105.2 644.848 105.712C643.654 106.224 642.651 106.949 641.84 107.888C641.03 108.827 640.411 109.936 639.984 111.216C639.6 112.453 639.408 113.819 639.408 115.312V134H633.968V88.304ZM691.227 114.288C691.142 113.008 690.843 111.792 690.331 110.64C689.862 109.488 689.2 108.507 688.347 107.696C687.536 106.843 686.555 106.181 685.403 105.712C684.294 105.2 683.056 104.944 681.691 104.944C680.283 104.944 679.003 105.2 677.851 105.712C676.742 106.181 675.782 106.843 674.971 107.696C674.16 108.549 673.52 109.552 673.051 110.704C672.582 111.813 672.304 113.008 672.219 114.288H691.227ZM696.475 123.504C695.75 127.216 694.15 130.011 691.675 131.888C689.2 133.765 686.086 134.704 682.331 134.704C679.686 134.704 677.382 134.277 675.419 133.424C673.499 132.571 671.878 131.376 670.555 129.84C669.232 128.304 668.23 126.469 667.547 124.336C666.907 122.203 666.544 119.877 666.459 117.36C666.459 114.843 666.843 112.539 667.611 110.448C668.379 108.357 669.446 106.544 670.811 105.008C672.219 103.472 673.862 102.277 675.739 101.424C677.659 100.571 679.75 100.144 682.011 100.144C684.955 100.144 687.387 100.763 689.307 102C691.27 103.195 692.827 104.731 693.979 106.608C695.174 108.485 695.984 110.533 696.411 112.752C696.88 114.971 697.072 117.083 696.987 119.088H672.219C672.176 120.539 672.347 121.925 672.731 123.248C673.115 124.528 673.734 125.68 674.587 126.704C675.44 127.685 676.528 128.475 677.851 129.072C679.174 129.669 680.731 129.968 682.523 129.968C684.827 129.968 686.704 129.435 688.155 128.368C689.648 127.301 690.63 125.68 691.099 123.504H696.475ZM740.342 111.536C739.916 109.445 739.02 107.824 737.654 106.672C736.289 105.52 734.454 104.944 732.15 104.944C730.188 104.944 728.545 105.307 727.222 106.032C725.9 106.757 724.833 107.717 724.022 108.912C723.254 110.107 722.7 111.493 722.358 113.072C722.017 114.608 721.846 116.208 721.846 117.872C721.846 119.408 722.017 120.901 722.358 122.352C722.742 123.803 723.318 125.104 724.086 126.256C724.854 127.365 725.857 128.261 727.094 128.944C728.332 129.627 729.804 129.968 731.51 129.968C734.198 129.968 736.289 129.264 737.782 127.856C739.318 126.448 740.257 124.464 740.598 121.904H746.166C745.569 126 744.033 129.157 741.558 131.376C739.126 133.595 735.798 134.704 731.574 134.704C729.057 134.704 726.817 134.299 724.854 133.488C722.934 132.677 721.313 131.525 719.99 130.032C718.71 128.539 717.729 126.768 717.046 124.72C716.406 122.629 716.086 120.347 716.086 117.872C716.086 115.397 716.406 113.093 717.046 110.96C717.686 108.784 718.646 106.907 719.926 105.328C721.249 103.707 722.892 102.448 724.854 101.552C726.817 100.613 729.1 100.144 731.702 100.144C733.58 100.144 735.329 100.379 736.95 100.848C738.614 101.275 740.065 101.957 741.302 102.896C742.582 103.835 743.628 105.029 744.438 106.48C745.249 107.888 745.761 109.573 745.974 111.536H740.342ZM754.942 117.488C754.942 119.493 755.198 121.285 755.71 122.864C756.264 124.4 757.011 125.701 757.95 126.768C758.888 127.792 759.976 128.581 761.214 129.136C762.494 129.691 763.838 129.968 765.246 129.968C766.654 129.968 767.976 129.691 769.214 129.136C770.494 128.581 771.603 127.792 772.542 126.768C773.48 125.701 774.206 124.4 774.718 122.864C775.272 121.285 775.55 119.493 775.55 117.488C775.55 115.483 775.272 113.712 774.718 112.176C774.206 110.597 773.48 109.275 772.542 108.208C771.603 107.141 770.494 106.331 769.214 105.776C767.976 105.221 766.654 104.944 765.246 104.944C763.838 104.944 762.494 105.221 761.214 105.776C759.976 106.331 758.888 107.141 757.95 108.208C757.011 109.275 756.264 110.597 755.71 112.176C755.198 113.712 754.942 115.483 754.942 117.488ZM749.182 117.488C749.182 115.056 749.523 112.795 750.206 110.704C750.888 108.571 751.912 106.736 753.278 105.2C754.643 103.621 756.328 102.384 758.334 101.488C760.339 100.592 762.643 100.144 765.246 100.144C767.891 100.144 770.195 100.592 772.158 101.488C774.163 102.384 775.848 103.621 777.214 105.2C778.579 106.736 779.603 108.571 780.286 110.704C780.968 112.795 781.31 115.056 781.31 117.488C781.31 119.92 780.968 122.181 780.286 124.272C779.603 126.363 778.579 128.197 777.214 129.776C775.848 131.312 774.163 132.528 772.158 133.424C770.195 134.277 767.891 134.704 765.246 134.704C762.643 134.704 760.339 134.277 758.334 133.424C756.328 132.528 754.643 131.312 753.278 129.776C751.912 128.197 750.888 126.363 750.206 124.272C749.523 122.181 749.182 119.92 749.182 117.488ZM786.443 100.912H791.563V105.776H791.691C794.166 102.021 797.729 100.144 802.379 100.144C804.427 100.144 806.283 100.571 807.947 101.424C809.611 102.277 810.785 103.728 811.467 105.776C812.577 103.984 814.027 102.597 815.819 101.616C817.654 100.635 819.659 100.144 821.835 100.144C823.499 100.144 824.993 100.336 826.315 100.72C827.681 101.061 828.833 101.616 829.771 102.384C830.753 103.152 831.499 104.155 832.011 105.392C832.566 106.587 832.843 108.037 832.843 109.744V134H827.403V112.304C827.403 111.28 827.318 110.32 827.147 109.424C826.977 108.528 826.657 107.76 826.187 107.12C825.718 106.437 825.057 105.904 824.203 105.52C823.393 105.136 822.326 104.944 821.003 104.944C818.315 104.944 816.203 105.712 814.667 107.248C813.131 108.784 812.363 110.832 812.363 113.392V134H806.923V112.304C806.923 111.237 806.817 110.256 806.603 109.36C806.433 108.464 806.113 107.696 805.643 107.056C805.174 106.373 804.534 105.861 803.723 105.52C802.955 105.136 801.953 104.944 800.715 104.944C799.137 104.944 797.771 105.264 796.619 105.904C795.51 106.544 794.593 107.312 793.867 108.208C793.185 109.104 792.673 110.043 792.331 111.024C792.033 111.963 791.883 112.752 791.883 113.392V134H786.443V100.912ZM839.726 100.912H844.846V105.776H844.974C847.449 102.021 851.011 100.144 855.662 100.144C857.71 100.144 859.566 100.571 861.23 101.424C862.894 102.277 864.067 103.728 864.75 105.776C865.859 103.984 867.31 102.597 869.102 101.616C870.937 100.635 872.942 100.144 875.118 100.144C876.782 100.144 878.275 100.336 879.598 100.72C880.963 101.061 882.115 101.616 883.054 102.384C884.035 103.152 884.782 104.155 885.294 105.392C885.849 106.587 886.126 108.037 886.126 109.744V134H880.686V112.304C880.686 111.28 880.601 110.32 880.43 109.424C880.259 108.528 879.939 107.76 879.47 107.12C879.001 106.437 878.339 105.904 877.486 105.52C876.675 105.136 875.609 104.944 874.286 104.944C871.598 104.944 869.486 105.712 867.95 107.248C866.414 108.784 865.646 110.832 865.646 113.392V134H860.206V112.304C860.206 111.237 860.099 110.256 859.886 109.36C859.715 108.464 859.395 107.696 858.926 107.056C858.457 106.373 857.817 105.861 857.006 105.52C856.238 105.136 855.235 104.944 853.998 104.944C852.419 104.944 851.054 105.264 849.902 105.904C848.793 106.544 847.875 107.312 847.15 108.208C846.467 109.104 845.955 110.043 845.614 111.024C845.315 111.963 845.166 112.752 845.166 113.392V134H839.726V100.912ZM920.4 134H915.28V128.752H915.152C914 130.8 912.528 132.315 910.736 133.296C908.944 134.235 906.832 134.704 904.4 134.704C902.224 134.704 900.411 134.427 898.96 133.872C897.51 133.275 896.336 132.443 895.44 131.376C894.544 130.309 893.904 129.051 893.52 127.6C893.179 126.107 893.008 124.464 893.008 122.672V100.912H898.448V123.312C898.448 125.36 899.046 126.981 900.24 128.176C901.435 129.371 903.078 129.968 905.168 129.968C906.832 129.968 908.262 129.712 909.456 129.2C910.694 128.688 911.718 127.963 912.528 127.024C913.339 126.085 913.936 124.997 914.32 123.76C914.747 122.48 914.96 121.093 914.96 119.6V100.912H920.4V134ZM927.291 100.912H932.411V106.16H932.539C934.8 102.149 938.384 100.144 943.291 100.144C945.467 100.144 947.28 100.443 948.731 101.04C950.182 101.637 951.355 102.469 952.251 103.536C953.147 104.603 953.766 105.883 954.107 107.376C954.491 108.827 954.683 110.448 954.683 112.24V134H949.243V111.6C949.243 109.552 948.646 107.931 947.451 106.736C946.256 105.541 944.614 104.944 942.523 104.944C940.859 104.944 939.408 105.2 938.171 105.712C936.976 106.224 935.974 106.949 935.163 107.888C934.352 108.827 933.734 109.936 933.307 111.216C932.923 112.453 932.731 113.819 932.731 115.312V134H927.291V100.912ZM967.333 94.96H961.893V88.304H967.333V94.96ZM961.893 100.912H967.333V134H961.893V100.912ZM982.033 100.912H988.625V105.712H982.033V126.256C982.033 126.896 982.076 127.408 982.161 127.792C982.289 128.176 982.502 128.475 982.801 128.688C983.1 128.901 983.505 129.051 984.017 129.136C984.572 129.179 985.276 129.2 986.129 129.2H988.625V134H984.465C983.057 134 981.841 133.915 980.817 133.744C979.836 133.531 979.025 133.168 978.385 132.656C977.788 132.144 977.34 131.419 977.041 130.48C976.742 129.541 976.593 128.304 976.593 126.768V105.712H970.961V100.912H976.593V90.992H982.033V100.912ZM1006.38 138.416C1005.74 140.037 1005.1 141.403 1004.46 142.512C1003.86 143.621 1003.18 144.517 1002.41 145.2C1001.69 145.925 1000.86 146.437 999.916 146.736C999.02 147.077 997.975 147.248 996.78 147.248C996.14 147.248 995.5 147.205 994.86 147.12C994.22 147.035 993.602 146.885 993.004 146.672V141.68C993.474 141.893 994.007 142.064 994.604 142.192C995.244 142.363 995.778 142.448 996.204 142.448C997.314 142.448 998.231 142.171 998.956 141.616C999.724 141.104 1000.3 140.357 1000.68 139.376L1002.92 133.808L989.804 100.912H995.948L1005.61 127.984H1005.74L1015.02 100.912H1020.78L1006.38 138.416ZM1020.57 126.896H1027.68V134H1020.57V126.896Z" fill="#161616"/>
<defs>
<clipPath id="clip0_2_3782">
<rect width="515" height="74" fill="white"/>
</clipPath>
</defs>
</svg>
